<mxfile host="app.diagrams.net" modified="2023-11-12T07:05:53.260Z" agent="Mozilla/5.0 (Windows NT 10.0; Win64; x64) AppleWebKit/537.36 (KHTML, like Gecko) Chrome/119.0.0.0 Safari/537.36" etag="HWGsJrMTFpBFivI2DHiB" version="22.1.0" type="github">
  <diagram name="Page-1" id="ff44883e-f642-bcb2-894b-16b3d25a3f0b">
    <mxGraphModel dx="2333" dy="1258" grid="1" gridSize="10" guides="1" tooltips="1" connect="1" arrows="1" fold="1" page="1" pageScale="1.5" pageWidth="1600" pageHeight="900" background="none" math="0" shadow="0">
      <root>
        <mxCell id="0" style=";html=1;" />
        <mxCell id="1" style=";html=1;" parent="0" />
        <mxCell id="f0bcc99304e6f5a-9" style="edgeStyle=none;curved=1;html=1;startSize=10;endArrow=classic;endFill=1;endSize=10;strokeColor=#000000;strokeWidth=2;fontSize=12;" parent="1" edge="1">
          <mxGeometry relative="1" as="geometry">
            <mxPoint x="250" y="609.6" as="sourcePoint" />
            <mxPoint x="420" y="610" as="targetPoint" />
          </mxGeometry>
        </mxCell>
        <mxCell id="f0bcc99304e6f5a-1" value="Q" style="ellipse;whiteSpace=wrap;html=1;rounded=0;shadow=1;strokeColor=#666666;strokeWidth=4;fontSize=30;align=center;fillColor=#f5f5f5;" parent="1" vertex="1">
          <mxGeometry x="170" y="570" width="80" height="80" as="geometry" />
        </mxCell>
        <mxCell id="f0bcc99304e6f5a-10" style="edgeStyle=none;curved=1;html=1;startSize=10;endFill=1;endSize=10;strokeWidth=2;fontSize=12;" parent="1" source="f0bcc99304e6f5a-2" target="f0bcc99304e6f5a-6" edge="1">
          <mxGeometry relative="1" as="geometry" />
        </mxCell>
        <mxCell id="f0bcc99304e6f5a-2" value="H" style="ellipse;whiteSpace=wrap;html=1;rounded=0;shadow=1;strokeColor=#666666;strokeWidth=1;fontSize=30;align=center;fillColor=#f5f5f5;" parent="1" vertex="1">
          <mxGeometry x="420" y="570" width="80" height="80" as="geometry" />
        </mxCell>
        <mxCell id="f0bcc99304e6f5a-15" style="edgeStyle=none;curved=1;html=1;startSize=10;endFill=1;endSize=10;strokeWidth=2;fontSize=12;" parent="1" source="f0bcc99304e6f5a-4" target="f0bcc99304e6f5a-8" edge="1">
          <mxGeometry relative="1" as="geometry" />
        </mxCell>
        <mxCell id="f0bcc99304e6f5a-4" value="J" style="ellipse;whiteSpace=wrap;html=1;rounded=0;shadow=1;strokeColor=#666666;strokeWidth=1;fontSize=30;align=center;fillColor=#f5f5f5;" parent="1" vertex="1">
          <mxGeometry x="890" y="566" width="80" height="80" as="geometry" />
        </mxCell>
        <mxCell id="f0bcc99304e6f5a-14" style="edgeStyle=none;curved=1;html=1;startSize=10;endFill=1;endSize=10;strokeWidth=2;fontSize=12;" parent="1" source="f0bcc99304e6f5a-6" target="f0bcc99304e6f5a-4" edge="1">
          <mxGeometry relative="1" as="geometry" />
        </mxCell>
        <mxCell id="f0bcc99304e6f5a-6" value="I" style="ellipse;whiteSpace=wrap;html=1;rounded=0;shadow=1;strokeColor=#666666;strokeWidth=1;fontSize=30;align=center;fillColor=#f5f5f5;" parent="1" vertex="1">
          <mxGeometry x="650" y="566" width="80" height="80" as="geometry" />
        </mxCell>
        <mxCell id="f0bcc99304e6f5a-8" value="B" style="ellipse;whiteSpace=wrap;html=1;rounded=0;shadow=1;strokeColor=#666666;strokeWidth=4;fontSize=30;align=center;fillColor=#f5f5f5;" parent="1" vertex="1">
          <mxGeometry x="1150" y="566" width="80" height="80" as="geometry" />
        </mxCell>
        <mxCell id="7lp6abT1Qti0XrOkf4eM-5" value="" style="endArrow=classic;html=1;rounded=0;strokeWidth=2;" edge="1" parent="1">
          <mxGeometry width="50" height="50" relative="1" as="geometry">
            <mxPoint x="17" y="610" as="sourcePoint" />
            <mxPoint x="167" y="610" as="targetPoint" />
          </mxGeometry>
        </mxCell>
        <mxCell id="7lp6abT1Qti0XrOkf4eM-7" value="START" style="text;html=1;align=center;verticalAlign=middle;resizable=0;points=[];autosize=1;strokeColor=none;fillColor=none;strokeWidth=6;perimeterSpacing=0;fontSize=18;" vertex="1" parent="1">
          <mxGeometry x="50" y="570" width="80" height="40" as="geometry" />
        </mxCell>
        <mxCell id="7lp6abT1Qti0XrOkf4eM-8" value="&amp;lt;html&amp;gt;" style="text;html=1;align=center;verticalAlign=middle;resizable=0;points=[];autosize=1;strokeColor=none;fillColor=none;" vertex="1" parent="1">
          <mxGeometry x="180" y="660" width="60" height="30" as="geometry" />
        </mxCell>
        <mxCell id="7lp6abT1Qti0XrOkf4eM-11" value="" style="curved=1;endArrow=classic;html=1;rounded=0;exitX=0;exitY=0;exitDx=0;exitDy=0;entryX=1;entryY=0;entryDx=0;entryDy=0;strokeWidth=2;" edge="1" parent="1" source="f0bcc99304e6f5a-1" target="f0bcc99304e6f5a-1">
          <mxGeometry width="50" height="50" relative="1" as="geometry">
            <mxPoint x="170" y="570" as="sourcePoint" />
            <mxPoint x="260" y="560" as="targetPoint" />
            <Array as="points">
              <mxPoint x="160" y="550" />
              <mxPoint x="180" y="500" />
              <mxPoint x="238" y="500" />
              <mxPoint x="260" y="550" />
            </Array>
          </mxGeometry>
        </mxCell>
        <mxCell id="7lp6abT1Qti0XrOkf4eM-12" value="&amp;lt; , Z0 / XZ0&lt;br style=&quot;font-size: 18px;&quot;&gt;a, X / YX&lt;br style=&quot;font-size: 18px;&quot;&gt;&amp;gt;, Y / ZY" style="text;html=1;align=center;verticalAlign=middle;resizable=0;points=[];autosize=1;strokeColor=none;fillColor=none;fontSize=18;strokeWidth=2;" vertex="1" parent="1">
          <mxGeometry x="150" y="410" width="120" height="80" as="geometry" />
        </mxCell>
        <mxCell id="7lp6abT1Qti0XrOkf4eM-13" value="eps, Z / Z" style="text;html=1;align=center;verticalAlign=middle;resizable=0;points=[];autosize=1;strokeColor=none;fillColor=none;strokeWidth=2;fontSize=18;" vertex="1" parent="1">
          <mxGeometry x="280" y="566" width="100" height="40" as="geometry" />
        </mxCell>
        <mxCell id="7lp6abT1Qti0XrOkf4eM-14" value="&amp;lt;head&amp;gt;" style="text;html=1;align=center;verticalAlign=middle;resizable=0;points=[];autosize=1;strokeColor=none;fillColor=none;" vertex="1" parent="1">
          <mxGeometry x="430" y="660" width="60" height="30" as="geometry" />
        </mxCell>
        <mxCell id="7lp6abT1Qti0XrOkf4eM-15" value="&amp;lt;/head&amp;gt;" style="text;html=1;align=center;verticalAlign=middle;resizable=0;points=[];autosize=1;strokeColor=none;fillColor=none;" vertex="1" parent="1">
          <mxGeometry x="895" y="660" width="70" height="30" as="geometry" />
        </mxCell>
        <mxCell id="7lp6abT1Qti0XrOkf4eM-16" value="isi di dalam section head" style="text;html=1;align=center;verticalAlign=middle;resizable=0;points=[];autosize=1;strokeColor=none;fillColor=none;" vertex="1" parent="1">
          <mxGeometry x="615" y="660" width="150" height="30" as="geometry" />
        </mxCell>
        <mxCell id="7lp6abT1Qti0XrOkf4eM-17" value="&amp;lt;body&amp;gt;" style="text;html=1;align=center;verticalAlign=middle;resizable=0;points=[];autosize=1;strokeColor=none;fillColor=none;" vertex="1" parent="1">
          <mxGeometry x="1160" y="660" width="60" height="30" as="geometry" />
        </mxCell>
        <mxCell id="7lp6abT1Qti0XrOkf4eM-18" value="C" style="ellipse;whiteSpace=wrap;html=1;rounded=0;shadow=1;strokeColor=#666666;strokeWidth=4;fontSize=30;align=center;fillColor=#f5f5f5;" vertex="1" parent="1">
          <mxGeometry x="1410" y="566" width="80" height="80" as="geometry" />
        </mxCell>
        <mxCell id="7lp6abT1Qti0XrOkf4eM-19" style="edgeStyle=none;curved=1;html=1;startSize=10;endFill=1;endSize=10;strokeWidth=2;fontSize=12;" edge="1" parent="1">
          <mxGeometry relative="1" as="geometry">
            <mxPoint x="1230" y="608.46" as="sourcePoint" />
            <mxPoint x="1410" y="608.46" as="targetPoint" />
          </mxGeometry>
        </mxCell>
        <mxCell id="7lp6abT1Qti0XrOkf4eM-20" value="isi di dalam section body" style="text;html=1;align=center;verticalAlign=middle;resizable=0;points=[];autosize=1;strokeColor=none;fillColor=none;" vertex="1" parent="1">
          <mxGeometry x="1375" y="660" width="150" height="30" as="geometry" />
        </mxCell>
        <mxCell id="7lp6abT1Qti0XrOkf4eM-21" value="D" style="ellipse;whiteSpace=wrap;html=1;rounded=0;shadow=1;strokeColor=#666666;strokeWidth=4;fontSize=30;align=center;fillColor=#f5f5f5;" vertex="1" parent="1">
          <mxGeometry x="1670" y="566" width="80" height="80" as="geometry" />
        </mxCell>
        <mxCell id="7lp6abT1Qti0XrOkf4eM-22" style="edgeStyle=none;curved=1;html=1;startSize=10;endFill=1;endSize=10;strokeWidth=2;fontSize=12;" edge="1" parent="1">
          <mxGeometry relative="1" as="geometry">
            <mxPoint x="1491" y="607" as="sourcePoint" />
            <mxPoint x="1671" y="607" as="targetPoint" />
          </mxGeometry>
        </mxCell>
        <mxCell id="7lp6abT1Qti0XrOkf4eM-23" value="&amp;lt;/body&amp;gt;" style="text;html=1;align=center;verticalAlign=middle;resizable=0;points=[];autosize=1;strokeColor=none;fillColor=none;" vertex="1" parent="1">
          <mxGeometry x="1675" y="660" width="70" height="30" as="geometry" />
        </mxCell>
        <mxCell id="7lp6abT1Qti0XrOkf4eM-24" style="edgeStyle=none;curved=1;html=1;startSize=10;endFill=1;endSize=10;strokeWidth=2;fontSize=12;" edge="1" parent="1">
          <mxGeometry relative="1" as="geometry">
            <mxPoint x="1750" y="605.17" as="sourcePoint" />
            <mxPoint x="1930" y="605.17" as="targetPoint" />
          </mxGeometry>
        </mxCell>
        <mxCell id="7lp6abT1Qti0XrOkf4eM-25" value="P" style="ellipse;whiteSpace=wrap;html=1;rounded=0;shadow=1;strokeColor=#666666;strokeWidth=4;fontSize=30;align=center;fillColor=#f5f5f5;" vertex="1" parent="1">
          <mxGeometry x="1930" y="566" width="80" height="80" as="geometry" />
        </mxCell>
        <mxCell id="7lp6abT1Qti0XrOkf4eM-26" value="&amp;lt;/html&amp;gt;" style="text;html=1;align=center;verticalAlign=middle;resizable=0;points=[];autosize=1;strokeColor=none;fillColor=none;" vertex="1" parent="1">
          <mxGeometry x="1940" y="660" width="60" height="30" as="geometry" />
        </mxCell>
        <mxCell id="7lp6abT1Qti0XrOkf4eM-27" style="edgeStyle=none;curved=1;html=1;startSize=10;endFill=1;endSize=10;strokeWidth=2;fontSize=12;" edge="1" parent="1">
          <mxGeometry relative="1" as="geometry">
            <mxPoint x="2010" y="606" as="sourcePoint" />
            <mxPoint x="2190" y="606" as="targetPoint" />
          </mxGeometry>
        </mxCell>
        <mxCell id="7lp6abT1Qti0XrOkf4eM-28" value="F" style="ellipse;whiteSpace=wrap;html=1;rounded=0;shadow=1;strokeColor=#666666;strokeWidth=4;fontSize=30;align=center;fillColor=#f5f5f5;" vertex="1" parent="1">
          <mxGeometry x="2190" y="566" width="80" height="80" as="geometry" />
        </mxCell>
        <mxCell id="7lp6abT1Qti0XrOkf4eM-29" value="final state" style="text;html=1;align=center;verticalAlign=middle;resizable=0;points=[];autosize=1;strokeColor=none;fillColor=none;" vertex="1" parent="1">
          <mxGeometry x="2195" y="660" width="70" height="30" as="geometry" />
        </mxCell>
        <mxCell id="7lp6abT1Qti0XrOkf4eM-30" value="" style="curved=1;endArrow=classic;html=1;rounded=0;exitX=0;exitY=0;exitDx=0;exitDy=0;entryX=1;entryY=0;entryDx=0;entryDy=0;strokeWidth=2;" edge="1" parent="1">
          <mxGeometry width="50" height="50" relative="1" as="geometry">
            <mxPoint x="1942" y="572" as="sourcePoint" />
            <mxPoint x="1998" y="572" as="targetPoint" />
            <Array as="points">
              <mxPoint x="1920" y="540" />
              <mxPoint x="1940" y="490" />
              <mxPoint x="1998" y="490" />
              <mxPoint x="2020" y="540" />
            </Array>
          </mxGeometry>
        </mxCell>
        <mxCell id="7lp6abT1Qti0XrOkf4eM-31" value="&amp;lt;, Z / eps&lt;br&gt;a&#39;, Y / eps&lt;br&gt;&amp;gt;, X / eps" style="text;html=1;align=center;verticalAlign=middle;resizable=0;points=[];autosize=1;strokeColor=none;fillColor=none;fontSize=18;strokeWidth=2;" vertex="1" parent="1">
          <mxGeometry x="1920" y="410" width="100" height="80" as="geometry" />
        </mxCell>
        <mxCell id="7lp6abT1Qti0XrOkf4eM-32" value="eps, Z0 / Z0" style="text;html=1;align=center;verticalAlign=middle;resizable=0;points=[];autosize=1;strokeColor=none;fillColor=none;strokeWidth=2;fontSize=18;" vertex="1" parent="1">
          <mxGeometry x="2040" y="566" width="120" height="40" as="geometry" />
        </mxCell>
        <mxCell id="7lp6abT1Qti0XrOkf4eM-33" value="" style="curved=1;endArrow=classic;html=1;rounded=0;exitX=0;exitY=0;exitDx=0;exitDy=0;entryX=1;entryY=0;entryDx=0;entryDy=0;strokeWidth=2;" edge="1" parent="1">
          <mxGeometry width="50" height="50" relative="1" as="geometry">
            <mxPoint x="432" y="582" as="sourcePoint" />
            <mxPoint x="488" y="582" as="targetPoint" />
            <Array as="points">
              <mxPoint x="410" y="550" />
              <mxPoint x="430" y="500" />
              <mxPoint x="488" y="500" />
              <mxPoint x="510" y="550" />
            </Array>
          </mxGeometry>
        </mxCell>
        <mxCell id="7lp6abT1Qti0XrOkf4eM-34" value="" style="curved=1;endArrow=classic;html=1;rounded=0;exitX=0;exitY=0;exitDx=0;exitDy=0;entryX=1;entryY=0;entryDx=0;entryDy=0;strokeWidth=2;" edge="1" parent="1">
          <mxGeometry width="50" height="50" relative="1" as="geometry">
            <mxPoint x="662" y="576" as="sourcePoint" />
            <mxPoint x="718" y="576" as="targetPoint" />
            <Array as="points">
              <mxPoint x="640" y="544" />
              <mxPoint x="660" y="494" />
              <mxPoint x="718" y="494" />
              <mxPoint x="740" y="544" />
            </Array>
          </mxGeometry>
        </mxCell>
        <mxCell id="7lp6abT1Qti0XrOkf4eM-35" value="" style="curved=1;endArrow=classic;html=1;rounded=0;exitX=0;exitY=0;exitDx=0;exitDy=0;entryX=1;entryY=0;entryDx=0;entryDy=0;strokeWidth=2;" edge="1" parent="1">
          <mxGeometry width="50" height="50" relative="1" as="geometry">
            <mxPoint x="902" y="576" as="sourcePoint" />
            <mxPoint x="958" y="576" as="targetPoint" />
            <Array as="points">
              <mxPoint x="880" y="544" />
              <mxPoint x="900" y="494" />
              <mxPoint x="958" y="494" />
              <mxPoint x="980" y="544" />
            </Array>
          </mxGeometry>
        </mxCell>
        <mxCell id="7lp6abT1Qti0XrOkf4eM-36" value="" style="curved=1;endArrow=classic;html=1;rounded=0;exitX=0;exitY=0;exitDx=0;exitDy=0;entryX=1;entryY=0;entryDx=0;entryDy=0;strokeWidth=2;" edge="1" parent="1">
          <mxGeometry width="50" height="50" relative="1" as="geometry">
            <mxPoint x="1162" y="574" as="sourcePoint" />
            <mxPoint x="1218" y="574" as="targetPoint" />
            <Array as="points">
              <mxPoint x="1140" y="542" />
              <mxPoint x="1160" y="492" />
              <mxPoint x="1218" y="492" />
              <mxPoint x="1240" y="542" />
            </Array>
          </mxGeometry>
        </mxCell>
        <mxCell id="7lp6abT1Qti0XrOkf4eM-37" value="" style="curved=1;endArrow=classic;html=1;rounded=0;exitX=0;exitY=0;exitDx=0;exitDy=0;entryX=1;entryY=0;entryDx=0;entryDy=0;strokeWidth=2;" edge="1" parent="1">
          <mxGeometry width="50" height="50" relative="1" as="geometry">
            <mxPoint x="1422" y="574" as="sourcePoint" />
            <mxPoint x="1478" y="574" as="targetPoint" />
            <Array as="points">
              <mxPoint x="1400" y="542" />
              <mxPoint x="1420" y="492" />
              <mxPoint x="1478" y="492" />
              <mxPoint x="1500" y="542" />
            </Array>
          </mxGeometry>
        </mxCell>
        <mxCell id="7lp6abT1Qti0XrOkf4eM-38" value="" style="curved=1;endArrow=classic;html=1;rounded=0;exitX=0;exitY=0;exitDx=0;exitDy=0;entryX=1;entryY=0;entryDx=0;entryDy=0;strokeWidth=2;" edge="1" parent="1">
          <mxGeometry width="50" height="50" relative="1" as="geometry">
            <mxPoint x="1682" y="573" as="sourcePoint" />
            <mxPoint x="1738" y="573" as="targetPoint" />
            <Array as="points">
              <mxPoint x="1660" y="541" />
              <mxPoint x="1680" y="491" />
              <mxPoint x="1738" y="491" />
              <mxPoint x="1760" y="541" />
            </Array>
          </mxGeometry>
        </mxCell>
        <mxCell id="7lp6abT1Qti0XrOkf4eM-39" value="&amp;lt; , Z / UZ&lt;br style=&quot;font-size: 18px;&quot;&gt;b, U / VU&lt;br style=&quot;font-size: 18px;&quot;&gt;&amp;gt;, V / WV" style="text;html=1;align=center;verticalAlign=middle;resizable=0;points=[];autosize=1;strokeColor=none;fillColor=none;fontSize=18;strokeWidth=2;" vertex="1" parent="1">
          <mxGeometry x="408" y="410" width="100" height="80" as="geometry" />
        </mxCell>
        <mxCell id="7lp6abT1Qti0XrOkf4eM-40" value="&amp;lt; , W / eps&lt;br style=&quot;font-size: 18px;&quot;&gt;b&#39;, V / eps&lt;br style=&quot;font-size: 18px;&quot;&gt;&amp;gt;, U / eps" style="text;html=1;align=center;verticalAlign=middle;resizable=0;points=[];autosize=1;strokeColor=none;fillColor=none;fontSize=18;strokeWidth=2;" vertex="1" parent="1">
          <mxGeometry x="875" y="410" width="110" height="80" as="geometry" />
        </mxCell>
        <mxCell id="7lp6abT1Qti0XrOkf4eM-41" value="" style="shape=table;startSize=0;container=1;collapsible=0;childLayout=tableLayout;" vertex="1" parent="1">
          <mxGeometry x="180" y="700" width="60" height="160" as="geometry" />
        </mxCell>
        <mxCell id="7lp6abT1Qti0XrOkf4eM-42" value="" style="shape=tableRow;horizontal=0;startSize=0;swimlaneHead=0;swimlaneBody=0;strokeColor=inherit;top=0;left=0;bottom=0;right=0;collapsible=0;dropTarget=0;fillColor=none;points=[[0,0.5],[1,0.5]];portConstraint=eastwest;" vertex="1" parent="7lp6abT1Qti0XrOkf4eM-41">
          <mxGeometry width="60" height="40" as="geometry" />
        </mxCell>
        <mxCell id="7lp6abT1Qti0XrOkf4eM-43" value="Z" style="shape=partialRectangle;html=1;whiteSpace=wrap;connectable=0;strokeColor=inherit;overflow=hidden;fillColor=none;top=0;left=0;bottom=0;right=0;pointerEvents=1;" vertex="1" parent="7lp6abT1Qti0XrOkf4eM-42">
          <mxGeometry width="60" height="40" as="geometry">
            <mxRectangle width="60" height="40" as="alternateBounds" />
          </mxGeometry>
        </mxCell>
        <mxCell id="7lp6abT1Qti0XrOkf4eM-44" value="" style="shape=tableRow;horizontal=0;startSize=0;swimlaneHead=0;swimlaneBody=0;strokeColor=inherit;top=0;left=0;bottom=0;right=0;collapsible=0;dropTarget=0;fillColor=none;points=[[0,0.5],[1,0.5]];portConstraint=eastwest;" vertex="1" parent="7lp6abT1Qti0XrOkf4eM-41">
          <mxGeometry y="40" width="60" height="40" as="geometry" />
        </mxCell>
        <mxCell id="7lp6abT1Qti0XrOkf4eM-45" value="Y" style="shape=partialRectangle;html=1;whiteSpace=wrap;connectable=0;strokeColor=inherit;overflow=hidden;fillColor=none;top=0;left=0;bottom=0;right=0;pointerEvents=1;" vertex="1" parent="7lp6abT1Qti0XrOkf4eM-44">
          <mxGeometry width="60" height="40" as="geometry">
            <mxRectangle width="60" height="40" as="alternateBounds" />
          </mxGeometry>
        </mxCell>
        <mxCell id="7lp6abT1Qti0XrOkf4eM-46" value="" style="shape=tableRow;horizontal=0;startSize=0;swimlaneHead=0;swimlaneBody=0;strokeColor=inherit;top=0;left=0;bottom=0;right=0;collapsible=0;dropTarget=0;fillColor=none;points=[[0,0.5],[1,0.5]];portConstraint=eastwest;" vertex="1" parent="7lp6abT1Qti0XrOkf4eM-41">
          <mxGeometry y="80" width="60" height="40" as="geometry" />
        </mxCell>
        <mxCell id="7lp6abT1Qti0XrOkf4eM-47" value="X" style="shape=partialRectangle;html=1;whiteSpace=wrap;connectable=0;strokeColor=inherit;overflow=hidden;fillColor=none;top=0;left=0;bottom=0;right=0;pointerEvents=1;" vertex="1" parent="7lp6abT1Qti0XrOkf4eM-46">
          <mxGeometry width="60" height="40" as="geometry">
            <mxRectangle width="60" height="40" as="alternateBounds" />
          </mxGeometry>
        </mxCell>
        <mxCell id="7lp6abT1Qti0XrOkf4eM-48" value="" style="shape=tableRow;horizontal=0;startSize=0;swimlaneHead=0;swimlaneBody=0;strokeColor=inherit;top=0;left=0;bottom=0;right=0;collapsible=0;dropTarget=0;fillColor=none;points=[[0,0.5],[1,0.5]];portConstraint=eastwest;" vertex="1" parent="7lp6abT1Qti0XrOkf4eM-41">
          <mxGeometry y="120" width="60" height="40" as="geometry" />
        </mxCell>
        <mxCell id="7lp6abT1Qti0XrOkf4eM-49" value="Z0" style="shape=partialRectangle;html=1;whiteSpace=wrap;connectable=0;strokeColor=inherit;overflow=hidden;fillColor=none;top=0;left=0;bottom=0;right=0;pointerEvents=1;" vertex="1" parent="7lp6abT1Qti0XrOkf4eM-48">
          <mxGeometry width="60" height="40" as="geometry">
            <mxRectangle width="60" height="40" as="alternateBounds" />
          </mxGeometry>
        </mxCell>
        <mxCell id="7lp6abT1Qti0XrOkf4eM-50" value="" style="shape=table;startSize=0;container=1;collapsible=0;childLayout=tableLayout;" vertex="1" parent="1">
          <mxGeometry x="430" y="700" width="60" height="280" as="geometry" />
        </mxCell>
        <mxCell id="7lp6abT1Qti0XrOkf4eM-51" value="" style="shape=tableRow;horizontal=0;startSize=0;swimlaneHead=0;swimlaneBody=0;strokeColor=inherit;top=0;left=0;bottom=0;right=0;collapsible=0;dropTarget=0;fillColor=none;points=[[0,0.5],[1,0.5]];portConstraint=eastwest;" vertex="1" parent="7lp6abT1Qti0XrOkf4eM-50">
          <mxGeometry width="60" height="40" as="geometry" />
        </mxCell>
        <mxCell id="7lp6abT1Qti0XrOkf4eM-52" value="W" style="shape=partialRectangle;html=1;whiteSpace=wrap;connectable=0;strokeColor=inherit;overflow=hidden;fillColor=none;top=0;left=0;bottom=0;right=0;pointerEvents=1;" vertex="1" parent="7lp6abT1Qti0XrOkf4eM-51">
          <mxGeometry width="60" height="40" as="geometry">
            <mxRectangle width="60" height="40" as="alternateBounds" />
          </mxGeometry>
        </mxCell>
        <mxCell id="7lp6abT1Qti0XrOkf4eM-53" value="" style="shape=tableRow;horizontal=0;startSize=0;swimlaneHead=0;swimlaneBody=0;strokeColor=inherit;top=0;left=0;bottom=0;right=0;collapsible=0;dropTarget=0;fillColor=none;points=[[0,0.5],[1,0.5]];portConstraint=eastwest;" vertex="1" parent="7lp6abT1Qti0XrOkf4eM-50">
          <mxGeometry y="40" width="60" height="40" as="geometry" />
        </mxCell>
        <mxCell id="7lp6abT1Qti0XrOkf4eM-54" value="V" style="shape=partialRectangle;html=1;whiteSpace=wrap;connectable=0;strokeColor=inherit;overflow=hidden;fillColor=none;top=0;left=0;bottom=0;right=0;pointerEvents=1;" vertex="1" parent="7lp6abT1Qti0XrOkf4eM-53">
          <mxGeometry width="60" height="40" as="geometry">
            <mxRectangle width="60" height="40" as="alternateBounds" />
          </mxGeometry>
        </mxCell>
        <mxCell id="7lp6abT1Qti0XrOkf4eM-55" value="" style="shape=tableRow;horizontal=0;startSize=0;swimlaneHead=0;swimlaneBody=0;strokeColor=inherit;top=0;left=0;bottom=0;right=0;collapsible=0;dropTarget=0;fillColor=none;points=[[0,0.5],[1,0.5]];portConstraint=eastwest;" vertex="1" parent="7lp6abT1Qti0XrOkf4eM-50">
          <mxGeometry y="80" width="60" height="40" as="geometry" />
        </mxCell>
        <mxCell id="7lp6abT1Qti0XrOkf4eM-56" value="U" style="shape=partialRectangle;html=1;whiteSpace=wrap;connectable=0;strokeColor=inherit;overflow=hidden;fillColor=none;top=0;left=0;bottom=0;right=0;pointerEvents=1;" vertex="1" parent="7lp6abT1Qti0XrOkf4eM-55">
          <mxGeometry width="60" height="40" as="geometry">
            <mxRectangle width="60" height="40" as="alternateBounds" />
          </mxGeometry>
        </mxCell>
        <mxCell id="7lp6abT1Qti0XrOkf4eM-57" value="" style="shape=tableRow;horizontal=0;startSize=0;swimlaneHead=0;swimlaneBody=0;strokeColor=inherit;top=0;left=0;bottom=0;right=0;collapsible=0;dropTarget=0;fillColor=none;points=[[0,0.5],[1,0.5]];portConstraint=eastwest;" vertex="1" parent="7lp6abT1Qti0XrOkf4eM-50">
          <mxGeometry y="120" width="60" height="40" as="geometry" />
        </mxCell>
        <mxCell id="7lp6abT1Qti0XrOkf4eM-58" value="Z" style="shape=partialRectangle;html=1;whiteSpace=wrap;connectable=0;strokeColor=inherit;overflow=hidden;fillColor=none;top=0;left=0;bottom=0;right=0;pointerEvents=1;" vertex="1" parent="7lp6abT1Qti0XrOkf4eM-57">
          <mxGeometry width="60" height="40" as="geometry">
            <mxRectangle width="60" height="40" as="alternateBounds" />
          </mxGeometry>
        </mxCell>
        <mxCell id="7lp6abT1Qti0XrOkf4eM-59" value="" style="shape=tableRow;horizontal=0;startSize=0;swimlaneHead=0;swimlaneBody=0;strokeColor=inherit;top=0;left=0;bottom=0;right=0;collapsible=0;dropTarget=0;fillColor=none;points=[[0,0.5],[1,0.5]];portConstraint=eastwest;" vertex="1" parent="7lp6abT1Qti0XrOkf4eM-50">
          <mxGeometry y="160" width="60" height="40" as="geometry" />
        </mxCell>
        <mxCell id="7lp6abT1Qti0XrOkf4eM-60" value="Y" style="shape=partialRectangle;html=1;whiteSpace=wrap;connectable=0;strokeColor=inherit;overflow=hidden;fillColor=none;top=0;left=0;bottom=0;right=0;pointerEvents=1;" vertex="1" parent="7lp6abT1Qti0XrOkf4eM-59">
          <mxGeometry width="60" height="40" as="geometry">
            <mxRectangle width="60" height="40" as="alternateBounds" />
          </mxGeometry>
        </mxCell>
        <mxCell id="7lp6abT1Qti0XrOkf4eM-61" value="" style="shape=tableRow;horizontal=0;startSize=0;swimlaneHead=0;swimlaneBody=0;strokeColor=inherit;top=0;left=0;bottom=0;right=0;collapsible=0;dropTarget=0;fillColor=none;points=[[0,0.5],[1,0.5]];portConstraint=eastwest;" vertex="1" parent="7lp6abT1Qti0XrOkf4eM-50">
          <mxGeometry y="200" width="60" height="40" as="geometry" />
        </mxCell>
        <mxCell id="7lp6abT1Qti0XrOkf4eM-62" value="X" style="shape=partialRectangle;html=1;whiteSpace=wrap;connectable=0;strokeColor=inherit;overflow=hidden;fillColor=none;top=0;left=0;bottom=0;right=0;pointerEvents=1;" vertex="1" parent="7lp6abT1Qti0XrOkf4eM-61">
          <mxGeometry width="60" height="40" as="geometry">
            <mxRectangle width="60" height="40" as="alternateBounds" />
          </mxGeometry>
        </mxCell>
        <mxCell id="7lp6abT1Qti0XrOkf4eM-63" value="" style="shape=tableRow;horizontal=0;startSize=0;swimlaneHead=0;swimlaneBody=0;strokeColor=inherit;top=0;left=0;bottom=0;right=0;collapsible=0;dropTarget=0;fillColor=none;points=[[0,0.5],[1,0.5]];portConstraint=eastwest;" vertex="1" parent="7lp6abT1Qti0XrOkf4eM-50">
          <mxGeometry y="240" width="60" height="40" as="geometry" />
        </mxCell>
        <mxCell id="7lp6abT1Qti0XrOkf4eM-64" value="Z0" style="shape=partialRectangle;html=1;whiteSpace=wrap;connectable=0;strokeColor=inherit;overflow=hidden;fillColor=none;top=0;left=0;bottom=0;right=0;pointerEvents=1;" vertex="1" parent="7lp6abT1Qti0XrOkf4eM-63">
          <mxGeometry width="60" height="40" as="geometry">
            <mxRectangle width="60" height="40" as="alternateBounds" />
          </mxGeometry>
        </mxCell>
        <mxCell id="7lp6abT1Qti0XrOkf4eM-65" value="" style="shape=table;startSize=0;container=1;collapsible=0;childLayout=tableLayout;" vertex="1" parent="1">
          <mxGeometry x="900" y="700" width="60" height="160" as="geometry" />
        </mxCell>
        <mxCell id="7lp6abT1Qti0XrOkf4eM-66" value="" style="shape=tableRow;horizontal=0;startSize=0;swimlaneHead=0;swimlaneBody=0;strokeColor=inherit;top=0;left=0;bottom=0;right=0;collapsible=0;dropTarget=0;fillColor=none;points=[[0,0.5],[1,0.5]];portConstraint=eastwest;" vertex="1" parent="7lp6abT1Qti0XrOkf4eM-65">
          <mxGeometry width="60" height="40" as="geometry" />
        </mxCell>
        <mxCell id="7lp6abT1Qti0XrOkf4eM-67" value="Z" style="shape=partialRectangle;html=1;whiteSpace=wrap;connectable=0;strokeColor=inherit;overflow=hidden;fillColor=none;top=0;left=0;bottom=0;right=0;pointerEvents=1;" vertex="1" parent="7lp6abT1Qti0XrOkf4eM-66">
          <mxGeometry width="60" height="40" as="geometry">
            <mxRectangle width="60" height="40" as="alternateBounds" />
          </mxGeometry>
        </mxCell>
        <mxCell id="7lp6abT1Qti0XrOkf4eM-68" value="" style="shape=tableRow;horizontal=0;startSize=0;swimlaneHead=0;swimlaneBody=0;strokeColor=inherit;top=0;left=0;bottom=0;right=0;collapsible=0;dropTarget=0;fillColor=none;points=[[0,0.5],[1,0.5]];portConstraint=eastwest;" vertex="1" parent="7lp6abT1Qti0XrOkf4eM-65">
          <mxGeometry y="40" width="60" height="40" as="geometry" />
        </mxCell>
        <mxCell id="7lp6abT1Qti0XrOkf4eM-69" value="Y" style="shape=partialRectangle;html=1;whiteSpace=wrap;connectable=0;strokeColor=inherit;overflow=hidden;fillColor=none;top=0;left=0;bottom=0;right=0;pointerEvents=1;" vertex="1" parent="7lp6abT1Qti0XrOkf4eM-68">
          <mxGeometry width="60" height="40" as="geometry">
            <mxRectangle width="60" height="40" as="alternateBounds" />
          </mxGeometry>
        </mxCell>
        <mxCell id="7lp6abT1Qti0XrOkf4eM-70" value="" style="shape=tableRow;horizontal=0;startSize=0;swimlaneHead=0;swimlaneBody=0;strokeColor=inherit;top=0;left=0;bottom=0;right=0;collapsible=0;dropTarget=0;fillColor=none;points=[[0,0.5],[1,0.5]];portConstraint=eastwest;" vertex="1" parent="7lp6abT1Qti0XrOkf4eM-65">
          <mxGeometry y="80" width="60" height="40" as="geometry" />
        </mxCell>
        <mxCell id="7lp6abT1Qti0XrOkf4eM-71" value="X" style="shape=partialRectangle;html=1;whiteSpace=wrap;connectable=0;strokeColor=inherit;overflow=hidden;fillColor=none;top=0;left=0;bottom=0;right=0;pointerEvents=1;" vertex="1" parent="7lp6abT1Qti0XrOkf4eM-70">
          <mxGeometry width="60" height="40" as="geometry">
            <mxRectangle width="60" height="40" as="alternateBounds" />
          </mxGeometry>
        </mxCell>
        <mxCell id="7lp6abT1Qti0XrOkf4eM-72" value="" style="shape=tableRow;horizontal=0;startSize=0;swimlaneHead=0;swimlaneBody=0;strokeColor=inherit;top=0;left=0;bottom=0;right=0;collapsible=0;dropTarget=0;fillColor=none;points=[[0,0.5],[1,0.5]];portConstraint=eastwest;" vertex="1" parent="7lp6abT1Qti0XrOkf4eM-65">
          <mxGeometry y="120" width="60" height="40" as="geometry" />
        </mxCell>
        <mxCell id="7lp6abT1Qti0XrOkf4eM-73" value="Z0" style="shape=partialRectangle;html=1;whiteSpace=wrap;connectable=0;strokeColor=inherit;overflow=hidden;fillColor=none;top=0;left=0;bottom=0;right=0;pointerEvents=1;" vertex="1" parent="7lp6abT1Qti0XrOkf4eM-72">
          <mxGeometry width="60" height="40" as="geometry">
            <mxRectangle width="60" height="40" as="alternateBounds" />
          </mxGeometry>
        </mxCell>
        <mxCell id="7lp6abT1Qti0XrOkf4eM-74" value="eps, W / W" style="text;html=1;align=center;verticalAlign=middle;resizable=0;points=[];autosize=1;strokeColor=none;fillColor=none;strokeWidth=2;fontSize=18;" vertex="1" parent="1">
          <mxGeometry x="515" y="565" width="110" height="40" as="geometry" />
        </mxCell>
        <mxCell id="7lp6abT1Qti0XrOkf4eM-75" value="eps, W / W" style="text;html=1;align=center;verticalAlign=middle;resizable=0;points=[];autosize=1;strokeColor=none;fillColor=none;strokeWidth=2;fontSize=18;" vertex="1" parent="1">
          <mxGeometry x="750" y="564" width="110" height="40" as="geometry" />
        </mxCell>
        <mxCell id="7lp6abT1Qti0XrOkf4eM-76" value="eps, Z / Z" style="text;html=1;align=center;verticalAlign=middle;resizable=0;points=[];autosize=1;strokeColor=none;fillColor=none;strokeWidth=2;fontSize=18;" vertex="1" parent="1">
          <mxGeometry x="1005" y="564" width="100" height="40" as="geometry" />
        </mxCell>
        <mxCell id="7lp6abT1Qti0XrOkf4eM-77" value="&amp;lt; , Z / RZ&lt;br style=&quot;font-size: 18px;&quot;&gt;c, R / SR&lt;br style=&quot;font-size: 18px;&quot;&gt;&amp;gt;, S / TS" style="text;html=1;align=center;verticalAlign=middle;resizable=0;points=[];autosize=1;strokeColor=none;fillColor=none;fontSize=18;strokeWidth=2;" vertex="1" parent="1">
          <mxGeometry x="1140" y="410" width="100" height="80" as="geometry" />
        </mxCell>
        <mxCell id="7lp6abT1Qti0XrOkf4eM-80" value="" style="shape=table;startSize=0;container=1;collapsible=0;childLayout=tableLayout;" vertex="1" parent="1">
          <mxGeometry x="1160" y="700" width="60" height="280" as="geometry" />
        </mxCell>
        <mxCell id="7lp6abT1Qti0XrOkf4eM-81" value="" style="shape=tableRow;horizontal=0;startSize=0;swimlaneHead=0;swimlaneBody=0;strokeColor=inherit;top=0;left=0;bottom=0;right=0;collapsible=0;dropTarget=0;fillColor=none;points=[[0,0.5],[1,0.5]];portConstraint=eastwest;" vertex="1" parent="7lp6abT1Qti0XrOkf4eM-80">
          <mxGeometry width="60" height="40" as="geometry" />
        </mxCell>
        <mxCell id="7lp6abT1Qti0XrOkf4eM-82" value="T" style="shape=partialRectangle;html=1;whiteSpace=wrap;connectable=0;strokeColor=inherit;overflow=hidden;fillColor=none;top=0;left=0;bottom=0;right=0;pointerEvents=1;" vertex="1" parent="7lp6abT1Qti0XrOkf4eM-81">
          <mxGeometry width="60" height="40" as="geometry">
            <mxRectangle width="60" height="40" as="alternateBounds" />
          </mxGeometry>
        </mxCell>
        <mxCell id="7lp6abT1Qti0XrOkf4eM-83" value="" style="shape=tableRow;horizontal=0;startSize=0;swimlaneHead=0;swimlaneBody=0;strokeColor=inherit;top=0;left=0;bottom=0;right=0;collapsible=0;dropTarget=0;fillColor=none;points=[[0,0.5],[1,0.5]];portConstraint=eastwest;" vertex="1" parent="7lp6abT1Qti0XrOkf4eM-80">
          <mxGeometry y="40" width="60" height="40" as="geometry" />
        </mxCell>
        <mxCell id="7lp6abT1Qti0XrOkf4eM-84" value="S" style="shape=partialRectangle;html=1;whiteSpace=wrap;connectable=0;strokeColor=inherit;overflow=hidden;fillColor=none;top=0;left=0;bottom=0;right=0;pointerEvents=1;" vertex="1" parent="7lp6abT1Qti0XrOkf4eM-83">
          <mxGeometry width="60" height="40" as="geometry">
            <mxRectangle width="60" height="40" as="alternateBounds" />
          </mxGeometry>
        </mxCell>
        <mxCell id="7lp6abT1Qti0XrOkf4eM-85" value="" style="shape=tableRow;horizontal=0;startSize=0;swimlaneHead=0;swimlaneBody=0;strokeColor=inherit;top=0;left=0;bottom=0;right=0;collapsible=0;dropTarget=0;fillColor=none;points=[[0,0.5],[1,0.5]];portConstraint=eastwest;" vertex="1" parent="7lp6abT1Qti0XrOkf4eM-80">
          <mxGeometry y="80" width="60" height="40" as="geometry" />
        </mxCell>
        <mxCell id="7lp6abT1Qti0XrOkf4eM-86" value="R" style="shape=partialRectangle;html=1;whiteSpace=wrap;connectable=0;strokeColor=inherit;overflow=hidden;fillColor=none;top=0;left=0;bottom=0;right=0;pointerEvents=1;" vertex="1" parent="7lp6abT1Qti0XrOkf4eM-85">
          <mxGeometry width="60" height="40" as="geometry">
            <mxRectangle width="60" height="40" as="alternateBounds" />
          </mxGeometry>
        </mxCell>
        <mxCell id="7lp6abT1Qti0XrOkf4eM-87" value="" style="shape=tableRow;horizontal=0;startSize=0;swimlaneHead=0;swimlaneBody=0;strokeColor=inherit;top=0;left=0;bottom=0;right=0;collapsible=0;dropTarget=0;fillColor=none;points=[[0,0.5],[1,0.5]];portConstraint=eastwest;" vertex="1" parent="7lp6abT1Qti0XrOkf4eM-80">
          <mxGeometry y="120" width="60" height="40" as="geometry" />
        </mxCell>
        <mxCell id="7lp6abT1Qti0XrOkf4eM-88" value="Z" style="shape=partialRectangle;html=1;whiteSpace=wrap;connectable=0;strokeColor=inherit;overflow=hidden;fillColor=none;top=0;left=0;bottom=0;right=0;pointerEvents=1;" vertex="1" parent="7lp6abT1Qti0XrOkf4eM-87">
          <mxGeometry width="60" height="40" as="geometry">
            <mxRectangle width="60" height="40" as="alternateBounds" />
          </mxGeometry>
        </mxCell>
        <mxCell id="7lp6abT1Qti0XrOkf4eM-89" value="" style="shape=tableRow;horizontal=0;startSize=0;swimlaneHead=0;swimlaneBody=0;strokeColor=inherit;top=0;left=0;bottom=0;right=0;collapsible=0;dropTarget=0;fillColor=none;points=[[0,0.5],[1,0.5]];portConstraint=eastwest;" vertex="1" parent="7lp6abT1Qti0XrOkf4eM-80">
          <mxGeometry y="160" width="60" height="40" as="geometry" />
        </mxCell>
        <mxCell id="7lp6abT1Qti0XrOkf4eM-90" value="Y" style="shape=partialRectangle;html=1;whiteSpace=wrap;connectable=0;strokeColor=inherit;overflow=hidden;fillColor=none;top=0;left=0;bottom=0;right=0;pointerEvents=1;" vertex="1" parent="7lp6abT1Qti0XrOkf4eM-89">
          <mxGeometry width="60" height="40" as="geometry">
            <mxRectangle width="60" height="40" as="alternateBounds" />
          </mxGeometry>
        </mxCell>
        <mxCell id="7lp6abT1Qti0XrOkf4eM-91" value="" style="shape=tableRow;horizontal=0;startSize=0;swimlaneHead=0;swimlaneBody=0;strokeColor=inherit;top=0;left=0;bottom=0;right=0;collapsible=0;dropTarget=0;fillColor=none;points=[[0,0.5],[1,0.5]];portConstraint=eastwest;" vertex="1" parent="7lp6abT1Qti0XrOkf4eM-80">
          <mxGeometry y="200" width="60" height="40" as="geometry" />
        </mxCell>
        <mxCell id="7lp6abT1Qti0XrOkf4eM-92" value="X" style="shape=partialRectangle;html=1;whiteSpace=wrap;connectable=0;strokeColor=inherit;overflow=hidden;fillColor=none;top=0;left=0;bottom=0;right=0;pointerEvents=1;" vertex="1" parent="7lp6abT1Qti0XrOkf4eM-91">
          <mxGeometry width="60" height="40" as="geometry">
            <mxRectangle width="60" height="40" as="alternateBounds" />
          </mxGeometry>
        </mxCell>
        <mxCell id="7lp6abT1Qti0XrOkf4eM-93" value="" style="shape=tableRow;horizontal=0;startSize=0;swimlaneHead=0;swimlaneBody=0;strokeColor=inherit;top=0;left=0;bottom=0;right=0;collapsible=0;dropTarget=0;fillColor=none;points=[[0,0.5],[1,0.5]];portConstraint=eastwest;" vertex="1" parent="7lp6abT1Qti0XrOkf4eM-80">
          <mxGeometry y="240" width="60" height="40" as="geometry" />
        </mxCell>
        <mxCell id="7lp6abT1Qti0XrOkf4eM-94" value="Z0" style="shape=partialRectangle;html=1;whiteSpace=wrap;connectable=0;strokeColor=inherit;overflow=hidden;fillColor=none;top=0;left=0;bottom=0;right=0;pointerEvents=1;" vertex="1" parent="7lp6abT1Qti0XrOkf4eM-93">
          <mxGeometry width="60" height="40" as="geometry">
            <mxRectangle width="60" height="40" as="alternateBounds" />
          </mxGeometry>
        </mxCell>
        <mxCell id="7lp6abT1Qti0XrOkf4eM-95" value="" style="shape=table;startSize=0;container=1;collapsible=0;childLayout=tableLayout;" vertex="1" parent="1">
          <mxGeometry x="1680" y="700" width="60" height="160" as="geometry" />
        </mxCell>
        <mxCell id="7lp6abT1Qti0XrOkf4eM-96" value="" style="shape=tableRow;horizontal=0;startSize=0;swimlaneHead=0;swimlaneBody=0;strokeColor=inherit;top=0;left=0;bottom=0;right=0;collapsible=0;dropTarget=0;fillColor=none;points=[[0,0.5],[1,0.5]];portConstraint=eastwest;" vertex="1" parent="7lp6abT1Qti0XrOkf4eM-95">
          <mxGeometry width="60" height="40" as="geometry" />
        </mxCell>
        <mxCell id="7lp6abT1Qti0XrOkf4eM-97" value="Z" style="shape=partialRectangle;html=1;whiteSpace=wrap;connectable=0;strokeColor=inherit;overflow=hidden;fillColor=none;top=0;left=0;bottom=0;right=0;pointerEvents=1;" vertex="1" parent="7lp6abT1Qti0XrOkf4eM-96">
          <mxGeometry width="60" height="40" as="geometry">
            <mxRectangle width="60" height="40" as="alternateBounds" />
          </mxGeometry>
        </mxCell>
        <mxCell id="7lp6abT1Qti0XrOkf4eM-98" value="" style="shape=tableRow;horizontal=0;startSize=0;swimlaneHead=0;swimlaneBody=0;strokeColor=inherit;top=0;left=0;bottom=0;right=0;collapsible=0;dropTarget=0;fillColor=none;points=[[0,0.5],[1,0.5]];portConstraint=eastwest;" vertex="1" parent="7lp6abT1Qti0XrOkf4eM-95">
          <mxGeometry y="40" width="60" height="40" as="geometry" />
        </mxCell>
        <mxCell id="7lp6abT1Qti0XrOkf4eM-99" value="Y" style="shape=partialRectangle;html=1;whiteSpace=wrap;connectable=0;strokeColor=inherit;overflow=hidden;fillColor=none;top=0;left=0;bottom=0;right=0;pointerEvents=1;" vertex="1" parent="7lp6abT1Qti0XrOkf4eM-98">
          <mxGeometry width="60" height="40" as="geometry">
            <mxRectangle width="60" height="40" as="alternateBounds" />
          </mxGeometry>
        </mxCell>
        <mxCell id="7lp6abT1Qti0XrOkf4eM-100" value="" style="shape=tableRow;horizontal=0;startSize=0;swimlaneHead=0;swimlaneBody=0;strokeColor=inherit;top=0;left=0;bottom=0;right=0;collapsible=0;dropTarget=0;fillColor=none;points=[[0,0.5],[1,0.5]];portConstraint=eastwest;" vertex="1" parent="7lp6abT1Qti0XrOkf4eM-95">
          <mxGeometry y="80" width="60" height="40" as="geometry" />
        </mxCell>
        <mxCell id="7lp6abT1Qti0XrOkf4eM-101" value="X" style="shape=partialRectangle;html=1;whiteSpace=wrap;connectable=0;strokeColor=inherit;overflow=hidden;fillColor=none;top=0;left=0;bottom=0;right=0;pointerEvents=1;" vertex="1" parent="7lp6abT1Qti0XrOkf4eM-100">
          <mxGeometry width="60" height="40" as="geometry">
            <mxRectangle width="60" height="40" as="alternateBounds" />
          </mxGeometry>
        </mxCell>
        <mxCell id="7lp6abT1Qti0XrOkf4eM-102" value="" style="shape=tableRow;horizontal=0;startSize=0;swimlaneHead=0;swimlaneBody=0;strokeColor=inherit;top=0;left=0;bottom=0;right=0;collapsible=0;dropTarget=0;fillColor=none;points=[[0,0.5],[1,0.5]];portConstraint=eastwest;" vertex="1" parent="7lp6abT1Qti0XrOkf4eM-95">
          <mxGeometry y="120" width="60" height="40" as="geometry" />
        </mxCell>
        <mxCell id="7lp6abT1Qti0XrOkf4eM-103" value="Z0" style="shape=partialRectangle;html=1;whiteSpace=wrap;connectable=0;strokeColor=inherit;overflow=hidden;fillColor=none;top=0;left=0;bottom=0;right=0;pointerEvents=1;" vertex="1" parent="7lp6abT1Qti0XrOkf4eM-102">
          <mxGeometry width="60" height="40" as="geometry">
            <mxRectangle width="60" height="40" as="alternateBounds" />
          </mxGeometry>
        </mxCell>
        <mxCell id="7lp6abT1Qti0XrOkf4eM-104" value="&amp;lt; , T / eps&lt;br style=&quot;font-size: 18px;&quot;&gt;c&#39;, S / eps&lt;br style=&quot;font-size: 18px;&quot;&gt;&amp;gt;, R / eps" style="text;html=1;align=center;verticalAlign=middle;resizable=0;points=[];autosize=1;strokeColor=none;fillColor=none;fontSize=18;strokeWidth=2;" vertex="1" parent="1">
          <mxGeometry x="1660" y="410" width="100" height="80" as="geometry" />
        </mxCell>
        <mxCell id="7lp6abT1Qti0XrOkf4eM-105" value="eps, T / T" style="text;html=1;align=center;verticalAlign=middle;resizable=0;points=[];autosize=1;strokeColor=none;fillColor=none;strokeWidth=2;fontSize=18;" vertex="1" parent="1">
          <mxGeometry x="1270" y="564" width="100" height="40" as="geometry" />
        </mxCell>
        <mxCell id="7lp6abT1Qti0XrOkf4eM-106" value="eps, T / T" style="text;html=1;align=center;verticalAlign=middle;resizable=0;points=[];autosize=1;strokeColor=none;fillColor=none;strokeWidth=2;fontSize=18;" vertex="1" parent="1">
          <mxGeometry x="1525" y="564" width="100" height="40" as="geometry" />
        </mxCell>
        <mxCell id="7lp6abT1Qti0XrOkf4eM-107" value="eps, Z / Z" style="text;html=1;align=center;verticalAlign=middle;resizable=0;points=[];autosize=1;strokeColor=none;fillColor=none;strokeWidth=2;fontSize=18;" vertex="1" parent="1">
          <mxGeometry x="1790" y="559" width="100" height="40" as="geometry" />
        </mxCell>
      </root>
    </mxGraphModel>
  </diagram>
</mxfile>
